<?xml version="1.0" encoding="UTF-8"?>
<svg width="18px" height="18px" viewBox="0 0 18 18" version="1.1" xmlns="http://www.w3.org/2000/svg" xmlns:xlink="http://www.w3.org/1999/xlink">
    <!-- Generator: Sketch 47.1 (45422) - http://www.bohemiancoding.com/sketch -->
    <title>list</title>
    <desc>Created with Sketch.</desc>
    <defs></defs>
    <g id="Page-1" stroke="none" stroke-width="1" fill="none" fill-rule="evenodd">
        <path d="M17.25,0.75 L0.75,0.75 L0.75,17.25 L17.25,17.25 L17.25,0.75 Z M18,0 L18,18 L0,18 L0,0 L18,0 Z M6,4.875 L6,4.125 L15,4.125 L15,4.875 L6,4.875 Z M6,9.375 L6,8.625 L15,8.625 L15,9.375 L6,9.375 Z M6,13.875 L6,13.125 L15,13.125 L15,13.875 L6,13.875 Z M3,4.5 C3,3.9999975 3.2499975,3.75 3.75,3.75 C4.2500025,3.75 4.5,3.9999975 4.5,4.5 C4.5,5.0000025 4.2500025,5.25 3.75,5.25 C3.2499975,5.25 3,5.0000025 3,4.5 Z M3,9 C3,8.4999975 3.2499975,8.25 3.75,8.25 C4.2500025,8.25 4.5,8.4999975 4.5,9 C4.5,9.5000025 4.2500025,9.75 3.75,9.75 C3.2499975,9.75 3,9.5000025 3,9 Z M3,13.5 C3,12.9999975 3.2499975,12.75 3.75,12.75 C4.2500025,12.75 4.5,12.9999975 4.5,13.5 C4.5,14.0000025 4.2500025,14.25 3.75,14.25 C3.2499975,14.25 3,14.0000025 3,13.5 Z" id="" fill="#FFFFFF"></path>
    </g>
</svg>